<!-- icon666.com - MILLIONS vector ICONS FREE --><svg id="Layer_1" enable-background="new 0 0 512 512" viewBox="0 0 512 512" xmlns="http://www.w3.org/2000/svg"><path d="m433.607 0h-355.214c-43.226 0-78.393 35.167-78.393 78.393v355.215c0 43.225 35.167 78.392 78.393 78.392h355.215c43.225 0 78.392-35.167 78.392-78.393v-355.214c0-43.226-35.167-78.393-78.393-78.393zm-15.607 363.395c0 16.956-13.794 30.75-30.75 30.75h-262.5c-16.956 0-30.75-13.794-30.75-30.75v-174.172c0-16.956 13.794-30.75 30.75-30.75h58.399l12.595-32.906c1.777-4.645 6.234-7.711 11.207-7.711h98.097c4.973 0 9.43 3.066 11.207 7.711l12.595 32.906h58.4c16.956 0 30.75 13.794 30.75 30.75zm-105-96.172c0 31.431-25.57 57.001-57 57.001s-57-25.57-57-57.001c0-31.43 25.57-57 57-57s57 25.57 57 57zm74.25-84.75h-66.656c-4.973 0-9.43-3.066-11.207-7.711l-12.595-32.906h-81.585l-12.595 32.906c-1.777 4.645-6.234 7.711-11.207 7.711h-66.655c-3.722 0-6.75 3.028-6.75 6.75v174.172c0 3.722 3.028 6.75 6.75 6.75h262.5c3.722 0 6.75-3.028 6.75-6.75v-174.172c0-3.722-3.028-6.75-6.75-6.75zm-131.25 165.751c-44.664 0-81-36.337-81-81.001s36.336-81 81-81 81 36.336 81 81-36.336 81.001-81 81.001z"></path></svg>